<svg xmlns="http://www.w3.org/2000/svg" viewBox="0 0 512 512" width="100%" height="100%">
  <defs>
    <linearGradient id="pageGradientC1" x1="0%" y1="0%" x2="0%" y2="100%">
      <stop offset="0%" stop-color="#FFB31A" />
      <stop offset="100%" stop-color="#E15A17" />
    </linearGradient>
  </defs>
  <rect x="16" y="16" width="480" height="480" rx="28" fill="#1A1A1A" />
  <g transform="translate(0, 0)">
    <!-- Sun (rendered behind the P) -->
    <circle cx="295" cy="165" r="28" fill="#FFE57F" />
    
    <!-- P path with evenodd rule: Outer body (CW) and Counter with mountain peak (CCW) -->
    <path fill-rule="evenodd" fill="url(#pageGradientC1)" d="
      M 160 90 
      L 330 90 
      C 395 90, 420 120, 420 175 
      C 420 230, 395 260, 330 260 
      L 230 260 
      L 230 420 
      L 160 420 
      Z
      
      M 230 140 
      L 330 140 
      C 350 140, 360 150, 360 175 
      C 360 190, 350 210, 330 210 
      L 310 210 
      L 280 160 
      L 250 210 
      L 230 210 
      Z" />
  </g>
</svg>
